<?xml version="1.0" encoding="utf-8"?>
<!-- Svg Vector Icons : http://www.onlinewebfonts.com/icon -->
<!DOCTYPE svg PUBLIC "-//W3C//DTD SVG 1.1//EN" "http://www.w3.org/Graphics/SVG/1.1/DTD/svg11.dtd">
<svg version="1.1" xmlns="http://www.w3.org/2000/svg" xmlns:xlink="http://www.w3.org/1999/xlink" x="0px" y="0px" viewBox="0 0 1000 1000" enable-background="new 0 0 1000 1000" xml:space="preserve">
<metadata> Svg Vector Icons : http://www.onlinewebfonts.com/icon </metadata>
<g><g transform="translate(0.000000,511.000000) scale(0.100000,-0.100000)"><path d="M4619.7,5006.1c-680.1-71.7-1188.6-210.8-1738.4-473.7c-532.4-256.4-923.5-534.6-1347.2-958.3C769.3,2809.3,308.6,1892.3,139.1,803.6C87,458.2,87-241.5,139.1-587.1c132.6-849.6,445.5-1599.3,956.1-2279.4c199.9-267.3,662.7-730.1,930-930c680.1-508.5,1434.1-825.7,2279.4-956.1c345.5-52.1,1047.4-52.1,1390.7,0c1206,186.9,2285.9,784.5,3048.6,1688.4c591.1,704.1,973.5,1551.5,1116.9,2477.2c52.1,343.3,52.1,1045.2,0,1390.7c-130.4,847.5-445.5,1597.1-956.1,2279.4c-199.9,267.3-662.7,730.1-930,930c-675.8,506.3-1434.1,825.7-2257.7,951.7C5497.6,4997.4,4797.9,5023.5,4619.7,5006.1z M5325.9,3930.5c504.1-45.6,927.9-165.1,1379.8-391.1c362.9-180.4,636.7-371.6,927.9-647.5c341.2-323.8,601.9-673.6,808.3-1084.3c100-197.7,130.4-328.1,100-438.9c-19.6-73.9-108.7-176-171.7-199.9c-10.9-4.3,4.4-304.2,43.5-756.2c32.6-412.9,63-751.9,63-751.9c0-2.2,30.4-15.2,65.2-30.4c84.7-34.8,186.9-152.1,206.4-234.7c15.2-78.2-50-347.7-156.5-634.5c-293.3-790.9-864.8-1479.8-1603.6-1933.9c-321.6-197.7-851.8-412.9-1016.9-412.9c-171.7,0-299.9,134.7-336.8,354.2l-17.4,91.3l-597.6,6.5l-599.8,4.4l-34.8-141.2c-80.4-321.6-245.5-386.8-634.5-249.9c-999.6,356.4-1781.8,1062.6-2229.4,2010c-156.5,332.5-297.7,808.3-271.6,912.6c19.5,73.9,130.4,195.6,208.6,228.2c43.5,17.4,65.2,43.5,67.4,73.9c0,23.9,26.1,362.9,58.7,751.9l58.7,708.4l-65.2,43.5c-93.4,58.7-145.6,171.7-134.7,286.8c19.6,180.4,299.9,684.5,565,1014.8c191.2,236.8,530.2,556.3,775.7,732.3c239,169.5,736.6,423.7,988.7,504.1C4330.7,3921.8,4804.4,3978.3,5325.9,3930.5z"/><path d="M4219.9,1659.8c-754-73.9-1512.4-223.8-2136-425.9c-204.2-65.2-212.9-69.5-212.9-130.4c0-32.6-19.5-360.7-45.6-725.8c-23.9-365.1-41.3-669.3-36.9-673.6c4.4-4.3,130.4,2.2,278.1,15.2C2877-211.1,3550.6-465.4,3950.5-989c304.2-399.8,478.1-977.8,491.1-1629.7l4.4-282.5l578-6.5l578-4.3l17.4,265.1c45.6,821.4,262.9,1386.3,686.6,1790.5c408.5,386.8,888.8,560.6,1571.1,562.8h343.3l-13,184.7c-6.5,102.1-21.7,380.3-34.8,619.3s-28.2,484.6-34.8,547.6l-10.9,113l-186.9,67.4c-599.7,215.1-1242.9,356.4-1940.4,423.7C5606.3,1701.1,4617.6,1701.1,4219.9,1659.8z M5358.5,727.6c286.8-100,419.4-286.8,328.1-462.8C5641,177.8,5569.3,117,5423.7,49.6C5302.1-6.9,5276-11.2,5000-11.2s-302,4.4-423.7,60.8c-473.7,221.7-367.2,575.8,217.3,719.3C4884.8,790.6,5252.1,764.5,5358.5,727.6z"/></g></g>
</svg>