<?xml version="1.0" encoding="UTF-8" standalone="no"?>
<!-- Svg Vector Icons : http://www.onlinewebfonts.com/icon -->

<svg
   version="1.1"
   x="0px"
   y="0px"
   viewBox="0 0 979.98499 980.33368"
   enable-background="new 0 0 1000 1000"
   xml:space="preserve"
   id="svg51"
   sodipodi:docname="steering-wheel-white.svg"
   width="979.98499"
   height="980.33368"
   inkscape:version="1.1.1 (3bf5ae0d25, 2021-09-20)"
   xmlns:inkscape="http://www.inkscape.org/namespaces/inkscape"
   xmlns:sodipodi="http://sodipodi.sourceforge.net/DTD/sodipodi-0.dtd"
   xmlns="http://www.w3.org/2000/svg"
   xmlns:svg="http://www.w3.org/2000/svg"><defs
   id="defs55" /><sodipodi:namedview
   id="namedview53"
   pagecolor="#ffffff"
   bordercolor="#666666"
   borderopacity="1.0"
   inkscape:pageshadow="2"
   inkscape:pageopacity="0.0"
   inkscape:pagecheckerboard="0"
   showgrid="false"
   inkscape:zoom="1.161"
   inkscape:cx="489.66408"
   inkscape:cy="490.52541"
   inkscape:window-width="2560"
   inkscape:window-height="1369"
   inkscape:window-x="-8"
   inkscape:window-y="-8"
   inkscape:window-maximized="1"
   inkscape:current-layer="g49" />
<metadata
   id="metadata41"> Svg Vector Icons : http://www.onlinewebfonts.com/icon </metadata>
<g
   id="g49"
   transform="translate(-10.0025,-9.8338169)"><g
     transform="matrix(0.1,0,0,-0.1,0,511)"
     id="g47"
     style="fill:#ffffff"><path
       d="M 4619.7,5006.1 C 3939.6,4934.4 3431.1,4795.3 2881.3,4532.4 2348.9,4276 1957.8,3997.8 1534.1,3574.1 769.3,2809.3 308.6,1892.3 139.1,803.6 87,458.2 87,-241.5 139.1,-587.1 c 132.6,-849.6 445.5,-1599.3 956.1,-2279.4 199.9,-267.3 662.7,-730.1 930,-930 680.1,-508.5 1434.1,-825.7 2279.4,-956.1 345.5,-52.1 1047.4,-52.1 1390.7,0 1206,186.9 2285.9,784.5 3048.6,1688.4 591.1,704.1 973.5,1551.5 1116.9,2477.2 52.1,343.3 52.1,1045.2 0,1390.7 -130.4,847.5 -445.5,1597.1 -956.1,2279.4 -199.9,267.3 -662.7,730.1 -930,930 -675.8,506.3 -1434.1,825.7 -2257.7,951.7 -219.4,32.6 -919.1,58.7 -1097.3,41.3 z m 706.2,-1075.6 c 504.1,-45.6 927.9,-165.1 1379.8,-391.1 362.9,-180.4 636.7,-371.6 927.9,-647.5 341.2,-323.8 601.9,-673.6 808.3,-1084.3 100,-197.7 130.4,-328.1 100,-438.9 -19.6,-73.9 -108.7,-176 -171.7,-199.9 -10.9,-4.3 4.4,-304.2 43.5,-756.2 32.6,-412.9 63,-751.9 63,-751.9 0,-2.2 30.4,-15.2 65.2,-30.4 84.7,-34.8 186.9,-152.1 206.4,-234.7 15.2,-78.2 -50,-347.7 -156.5,-634.5 -293.3,-790.9 -864.8,-1479.8 -1603.6,-1933.9 -321.6,-197.7 -851.8,-412.9 -1016.9,-412.9 -171.7,0 -299.9,134.7 -336.8,354.2 l -17.4,91.3 -597.6,6.5 -599.8,4.4 -34.8,-141.2 c -80.4,-321.6 -245.5,-386.8 -634.5,-249.9 -999.6,356.4 -1781.8,1062.6 -2229.4,2010 -156.5,332.5 -297.7,808.3 -271.6,912.6 19.5,73.9 130.4,195.6 208.6,228.2 43.5,17.4 65.2,43.5 67.4,73.9 0,23.9 26.1,362.9 58.7,751.9 l 58.7,708.4 -65.2,43.5 c -93.4,58.7 -145.6,171.7 -134.7,286.8 19.6,180.4 299.9,684.5 565,1014.8 191.2,236.8 530.2,556.3 775.7,732.3 239,169.5 736.6,423.7 988.7,504.1 558.4,175.7 1032.1,232.2 1553.6,184.4 z"
       id="path43"
       style="fill:#ffffff" /><path
       d="m 4219.9,1659.8 c -754,-73.9 -1512.4,-223.8 -2136,-425.9 -204.2,-65.2 -212.9,-69.5 -212.9,-130.4 0,-32.6 -19.5,-360.7 -45.6,-725.8 -23.9,-365.1 -41.3,-669.3 -36.9,-673.6 4.4,-4.3 130.4,2.2 278.1,15.2 810.4,69.6 1484,-184.7 1883.9,-708.3 304.2,-399.8 478.1,-977.8 491.1,-1629.7 l 4.4,-282.5 578,-6.5 578,-4.3 17.4,265.1 c 45.6,821.4 262.9,1386.3 686.6,1790.5 408.5,386.8 888.8,560.6 1571.1,562.8 h 343.3 l -13,184.7 c -6.5,102.1 -21.7,380.3 -34.8,619.3 -13.1,239 -28.2,484.6 -34.8,547.6 l -10.9,113 -186.9,67.4 c -599.7,215.1 -1242.9,356.4 -1940.4,423.7 -393.3,39 -1382,39 -1779.7,-2.3 z M 5358.5,727.6 C 5645.3,627.6 5777.9,440.8 5686.6,264.8 5641,177.8 5569.3,117 5423.7,49.6 5302.1,-6.9 5276,-11.2 5000,-11.2 c -276,0 -302,4.4 -423.7,60.8 -473.7,221.7 -367.2,575.8 217.3,719.3 91.2,21.7 458.5,-4.4 564.9,-41.3 z"
       id="path45"
       style="fill:#ffffff" /></g></g>
</svg>
